<svg xmlns="http://www.w3.org/2000/svg" xmlns:xlink="http://www.w3.org/1999/xlink"><symbol id="svg-body" viewBox="0 0 24 24"><path d="M16.86 10.262l-5.473 5.006a.927.927 0 0 1-1.275-.013l-2.749-2.629a.938.938 0 0 1-.032-1.322.937.937 0 0 1 1.321-.03l2.12 2.026 4.83-4.417a.93.93 0 0 1 1.318.059.934.934 0 0 1-.06 1.32M12 2.655c5.154 0 9.334 4.184 9.334 9.345 0 5.16-4.18 9.345-9.333 9.345-5.155 0-9.334-4.185-9.334-9.345 0-5.161 4.179-9.345 9.334-9.345zm5.318.495a2.739 2.739 0 0 1 3.879 0 2.747 2.747 0 0 1 0 3.882zm-14.515 0a2.739 2.739 0 0 1 3.879 0L2.803 7.032a2.747 2.747 0 0 1 0-3.882z" fill-rule="evenodd"/></symbol><use xlink:href="#svg-body"></use></svg>