<svg xmlns="http://www.w3.org/2000/svg" xmlns:xlink="http://www.w3.org/1999/xlink"><symbol id="svg-body" viewBox="0 0 24 24"><path d="M12 2.654c5.155 0 9.333 4.184 9.333 9.346 0 5.161-4.178 9.345-9.333 9.345S2.667 17.161 2.667 12c0-5.162 4.178-9.346 9.333-9.346zm0 2.003c-4.05 0-7.333 3.287-7.333 7.343 0 4.055 3.283 7.342 7.333 7.342 4.05 0 7.333-3.287 7.333-7.342 0-4.056-3.283-7.343-7.333-7.343zm0 3.338c.552 0 1 .453 1 .998v2.006h2.007c.512 0 .934.383.991.883l.007.118c0 .552-.453 1-.998 1l-2.008-.001.001 2.008a.996.996 0 0 1-.883.991l-.117.007c-.552 0-1-.454-1-.998v-2.008H8.992a.996.996 0 0 1-.991-.882L7.995 12c0-.553.453-1 .998-1L11 10.999V8.993c0-.512.383-.934.883-.992L12 7.995zm5.317-4.843a2.744 2.744 0 0 1 3.881-.003 2.744 2.744 0 0 1-.002 3.881zM2.802 3.149a2.744 2.744 0 0 1 3.88.003L2.805 7.03a2.744 2.744 0 0 1-.002-3.88z" fill-rule="evenodd"/></symbol><use xlink:href="#svg-body"></use></svg>