<svg xmlns="http://www.w3.org/2000/svg" xmlns:xlink="http://www.w3.org/1999/xlink"><symbol id="svg-body" viewBox="0 0 24 24"><path d="M23 10.4c0 2-.8 3.7-2.4 5.5-2.3 2.7-7.5 5.9-8.6 6.4-1.2.5-1-.3-1-.6 0-.2.2-.9.2-.9 0-.3.1-.7 0-1-.1-.3-.6-.5-1-.5-5.3-.8-9.2-4.5-9.2-8.9 0-4.9 4.9-8.9 11-8.9s11 4 11 8.9zM9.8 8H9c-.1 0-.2.1-.2.3v4.8c0 .1.1.2.2.2h.8c.1 0 .2-.1.2-.2V8.3c0-.2-.1-.3-.2-.3zm5.3 0h-.8c-.1 0-.2.1-.2.2V11l-2.2-3h-.8c-.1 0-.2.1-.2.2V13c0 .1.1.2.2.2h.8c.1 0 .2-.1.2-.2v-2.8l2.2 3 .1.1h.9c.1 0 .2-.1.2-.2V8.3c-.2-.2-.3-.3-.4-.3zm-7.2 4.1H5.8V8.3c0-.2-.1-.3-.2-.3h-.8c-.1 0-.2.1-.2.3v4.8c0 .1 0 .1.1.1l.1.1h3.1c.1 0 .2-.1.2-.2v-.8c0-.1-.1-.2-.2-.2zm11.4-2.9c.1 0 .2-.1.2-.2v-.7c0-.1-.1-.2-.2-.2h-3.1c-.1 0-.1 0-.1.1l-.1.1v4.8c0 .1 0 .1.1.1l.1.1h3.1c.1 0 .2-.1.2-.2v-.8c0-.1-.1-.2-.2-.2h-2.1v-.8h2.1c.1 0 .2-.1.2-.2v-.8c0-.1-.1-.2-.2-.2h-2.1v-.9h2.1z"/></symbol><use xlink:href="#svg-body"></use></svg>