<?xml version="1.0" encoding="utf-8"?>
<!-- Generator: Adobe Illustrator 20.0.0, SVG Export Plug-In . SVG Version: 6.00 Build 0)  -->
<svg version="1.1" id="Layer_1" xmlns="http://www.w3.org/2000/svg" xmlns:xlink="http://www.w3.org/1999/xlink" x="0px" y="0px"
	 viewBox="0 0 477.9 143" style="enable-background:new 0 0 477.9 143;" xml:space="preserve">
<style type="text/css">
	.st0{fill:#F58138;}
	.st1{fill:#BD6228;}
	.st2{fill:#CA2C27;}
	.st3{fill:#E74325;}
	.st4{fill:#ED6725;}
	.st5{fill:#FFD22F;}
	.st6{fill:#8DC63F;}
	.st7{fill:#AB9130;}
	.st8{fill:#8A762D;}
	.st9{fill:#D97227;}
	.st10{fill:#BB5C28;}
	.st11{fill:#B96139;}
	.st12{fill:#FDC333;}
	.st13{fill:#CD6D28;}
	.st14{fill:#FFFFFF;}
	.st15{fill:#006838;}
	.st16{fill:#ED1C24;}
	.st17{fill:none;stroke:#000000;stroke-width:8;stroke-miterlimit:10;}
	.st18{fill:none;stroke:#000000;stroke-width:7;stroke-miterlimit:10;}
	.st19{fill:none;}
	.st20{fill:#AEAEAE;}
	.st21{fill:#AAAAAA;}
	.st22{fill:#979797;}
	.st23{fill:#8C8C8C;}
	.st24{fill:#989898;}
	.st25{fill:#A2A2A2;}
	.st26{fill:#B4B4B4;}
	.st27{fill:#A0A0A0;}
	.st28{fill:#A6A6A6;}
	.st29{fill:#A4A4A4;}
	.st30{fill:#333334;}
	.st31{fill:#7B7B7B;}
	.st32{fill:#717171;}
	.st33{fill:#7F7F7F;}
	.st34{fill:#7A7A7A;}
	.st35{fill:#707070;}
	.st36{fill:#626262;}
	.st37{fill:#585858;}
	.st38{fill:#5B5B5B;}
	.st39{fill:#575757;}
	.st40{fill:#8D8D8D;}
	.st41{fill:#949494;}
	.st42{fill:#838383;}
	.st43{fill:#7C7C7C;}
	.st44{fill:#818181;}
	.st45{fill:#9E9E9E;}
	.st46{fill:#A1A1A1;}
	.st47{fill:#A9A9A9;}
	.st48{fill:#B1B1B1;}
	.st49{fill:#808080;}
	.st50{fill:#959595;}
	.st51{fill:#373737;}
	.st52{fill:#3B3B3B;}
	.st53{fill:#737373;}
	.st54{fill:#B3B3B3;}
	.st55{fill:#757575;}
	.st56{fill:#B6D7E9;}
	.st57{fill:#038562;}
	.st58{fill:#FEDF40;}
	.st59{fill:#5D342D;}
	.st60{fill:#FACC50;}
	.st61{fill:#D4AC43;}
	.st62{fill:#915246;}
	.st63{fill:#B2973F;}
	.st64{fill:#A79C34;}
	.st65{fill:#9D762B;}
	.st66{fill:#B6A932;}
	.st67{fill:#F26B3D;}
	.st68{fill:#F7A236;}
	.st69{fill:#E0B42D;}
	.st70{fill:#EDB51E;}
	.st71{fill:#B0872E;}
</style>
<g>
	<path class="st6" d="M196.4,111.2V78.8H171v32.5h-19V46c0-9.2,5.2-13.8,15.5-13.8H200c10.3,0,15.5,4.6,15.5,13.8v65.2H196.4z
		 M196.4,54.6c0-2.1-1.1-3.1-3.3-3.1h-18.8c-2.2,0-3.3,1-3.3,3.1v7.5h25.4V54.6z"/>
	<path class="st6" d="M273.3,111.2l-29.1-41.8v41.8h-19.1v-79h18.3l26.8,41.3V32.2h19.1v79H273.3z"/>
	<path class="st6" d="M299,111.2v-79h19.1v79H299z"/>
	<path class="st6" d="M391,111.2V70.8l-12,40.4h-19.3l-12-40.4v40.4h-19.8v-79h26.6l14.8,52.1l14.3-52.1h26.8v79H391z"/>
	<path class="st6" d="M420.1,111.2v-79h52.5v19.6h-33.3V63H468v16.7h-28.7v11.7h33.5v19.9H420.1z"/>
</g>
<g>
	<path class="st14" d="M152.4,120.5h2.5l4,6.8l3.9-6.8h2.5l0.7,14.4h-2.7l-0.5-10l-3.5,5.9h-1.3l-3.5-5.7l-0.5,9.8h-2.5L152.4,120.5
		z"/>
	<path class="st14" d="M173.1,120.5h2.7v8.6c0,2.2,0.8,3.6,3.2,3.6c2.4,0,3.2-1.4,3.2-3.6v-8.6h2.7v9.1c0,3.2-2.1,5.7-5.9,5.7
		c-3.7,0-5.9-2.5-5.9-5.7V120.5z"/>
	<path class="st14" d="M192.1,120.5h2.7v12h7.1v2.4h-9.8V120.5z"/>
	<path class="st14" d="M208.6,122.9h-4.9v-2.4h12.5v2.4h-4.9v12h-2.7V122.9z"/>
	<path class="st14" d="M222.5,120.5h2.7v14.4h-2.7V120.5z"/>
	<path class="st14" d="M232.6,127.6h6.6v2.4h-6.6V127.6z"/>
	<path class="st14" d="M246.5,120.5h2.7v12h7.1v2.4h-9.8V120.5z"/>
	<path class="st14" d="M267.1,120.5h2.8l5.5,14.4h-3l-1.3-3.7h-5.4l-1.3,3.7h-2.9L267.1,120.5z M270.3,129l-1.9-5.6l-1.9,5.6H270.3z
		"/>
	<path class="st14" d="M281.3,120.5h2.7l7,10.2v-10.2h2.7v14.4H291l-7-10.4v10.4h-2.7V120.5z"/>
	<path class="st14" d="M308.6,127.3h5.2v6c-1.1,1.1-2.9,2-5.8,2c-4.7,0-7.5-3.3-7.5-7.5c0-4.2,3-7.6,7.4-7.6c2.9,0,4.7,1.3,5.8,2.9
		l-1.9,1.7c-0.9-1.3-2.1-2.2-3.9-2.2c-2.8,0-4.6,2.4-4.6,5.2c0,3.1,2.2,5.1,4.8,5.1c1.3,0,2.4-0.3,3.1-1v-2.2h-2.6V127.3z"/>
	<path class="st14" d="M320.9,120.5h2.7v8.6c0,2.2,0.8,3.6,3.2,3.6c2.4,0,3.2-1.4,3.2-3.6v-8.6h2.7v9.1c0,3.2-2.1,5.7-5.9,5.7
		c-3.7,0-5.9-2.5-5.9-5.7V120.5z"/>
	<path class="st14" d="M343.5,120.5h2.8l5.5,14.4h-3l-1.3-3.7h-5.4l-1.3,3.7H338L343.5,120.5z M346.7,129l-1.9-5.6l-1.9,5.6H346.7z"
		/>
	<path class="st14" d="M364.9,127.3h5.2v6c-1.1,1.1-2.9,2-5.8,2c-4.7,0-7.5-3.3-7.5-7.5c0-4.2,3-7.6,7.4-7.6c2.9,0,4.7,1.3,5.8,2.9
		l-1.9,1.7c-0.9-1.3-2.1-2.2-3.9-2.2c-2.8,0-4.6,2.4-4.6,5.2c0,3.1,2.2,5.1,4.8,5.1c1.3,0,2.4-0.3,3.1-1v-2.2h-2.6V127.3z"/>
	<path class="st14" d="M377.2,120.5h9.3v2.4h-6.6v3.4h4.9v2.4h-4.9v3.8h7.1v2.4h-9.8V120.5z"/>
	<path class="st14" d="M394.9,130.8c0.7,0.8,1.9,1.9,3.7,1.9c1.7,0,2.5-0.9,2.5-2c0-1.2-0.9-1.8-3.5-2.3c-2.6-0.5-3.9-2.3-3.9-4.2
		c0-2.2,1.6-4.1,5-4.1c3.1,0,4.3,1.6,4.6,2l-1.8,1.7c-0.3-0.3-1.2-1.3-2.9-1.3c-1.5,0-2.2,0.9-2.2,1.6c0,1,0.6,1.6,3,2.1
		c2.2,0.5,4.3,1.8,4.3,4.6c0,2.5-2.2,4.4-5.2,4.4c-2.9,0-4.7-1.6-5.6-2.7L394.9,130.8z"/>
	<path class="st14" d="M428.5,130.8c0.7,0.8,1.9,1.9,3.7,1.9c1.7,0,2.5-0.9,2.5-2c0-1.2-0.9-1.8-3.5-2.3c-2.6-0.5-3.9-2.3-3.9-4.2
		c0-2.2,1.6-4.1,5-4.1c3.1,0,4.3,1.6,4.6,2l-1.8,1.7c-0.3-0.3-1.2-1.3-2.9-1.3c-1.5,0-2.2,0.9-2.2,1.6c0,1,0.6,1.6,3,2.1
		c2.2,0.5,4.3,1.8,4.3,4.6c0,2.5-2.2,4.4-5.2,4.4c-2.9,0-4.7-1.6-5.6-2.7L428.5,130.8z"/>
	<path class="st14" d="M444.4,120.5h2.7v8.6c0,2.2,0.8,3.6,3.2,3.6s3.2-1.4,3.2-3.6v-8.6h2.7v9.1c0,3.2-2.1,5.7-5.9,5.7
		s-5.9-2.5-5.9-5.7V120.5z"/>
	<path class="st14" d="M463.4,120.5h4.9c3,0,4.7,1.6,4.7,3.8c0,2-1.7,3-2.3,3c1,0.1,3,1,3,3.5c0,3.1-2.3,4.1-5.4,4.1h-4.9V120.5z
		 M468.2,126.2c1.1,0,2.2-0.5,2.2-1.8c0-1.3-1.1-1.7-2.2-1.7H466v3.4H468.2z M468.4,132.6c1,0,2.7-0.2,2.7-2c0-1.7-1.6-2.1-2.7-2.1
		H466v4.1H468.4z"/>
</g>
<circle id="XMLID_87_" class="st16" cx="70.9" cy="71.5" r="71.5"/>
<g id="XMLID_116_">
	<g id="XMLID_142_">
		<rect id="XMLID_180_" x="18.3" y="32.4" class="st14" width="14.3" height="78.7"/>
	</g>
	<g id="XMLID_141_">
		<rect id="XMLID_179_" x="25.5" y="32.4" class="st14" width="47.6" height="14.3"/>
	</g>
	<g id="XMLID_140_">
		<rect id="XMLID_178_" x="40.3" y="32.4" class="st14" width="14.3" height="78.7"/>
	</g>
	<g id="XMLID_118_">
		<rect id="XMLID_177_" x="62.3" y="32.4" class="st14" width="14.3" height="78.7"/>
	</g>
	<g id="XMLID_117_">
		<polygon id="XMLID_176_" class="st14" points="111,111 96.7,111 96.7,78.9 84.2,78.9 84.2,32 98.6,32 98.6,64.5 111,64.5 		"/>
	</g>
	<g id="XMLID_174_">
		<polygon id="XMLID_175_" class="st14" points="111,111 96.7,111 96.7,64.5 109.2,64.5 109.2,32 123.5,32 123.5,78.9 111,78.9 		
			"/>
	</g>
</g>
</svg>
