<svg xmlns="http://www.w3.org/2000/svg" xmlns:xlink="http://www.w3.org/1999/xlink"><symbol id="svg-body" viewBox="0 0 24 24"><path d="M16.183 5.5c3.959 0 5.82 1.86 5.82 5.82v3.36c0 3.96-1.861 5.82-5.82 5.82H7.82C3.86 20.5 2 18.64 2 14.68v-3.36C2 7.36 3.86 5.5 7.82 5.5H9.6L7.724 3.574A1.1 1.1 0 0 1 9.3 2.038l2.702 2.775 2.7-2.775a1.1 1.1 0 0 1 1.577 1.536L14.403 5.5h1.78zm3.82 9.18v-3.36c0-2.856-.964-3.82-3.82-3.82H7.82C4.964 7.5 4 8.464 4 11.32v3.36c0 2.856.964 3.82 3.82 3.82h8.363c2.856 0 3.82-.964 3.82-3.82zm-3.436 1.57H7.433c-.848 0-1.183-.335-1.183-1.184v-4.132c0-.849.335-1.184 1.183-1.184h9.134c.848 0 1.183.335 1.183 1.184v4.132c0 .849-.335 1.184-1.183 1.184z"/></symbol><use xlink:href="#svg-body"></use></svg>