<svg xmlns="http://www.w3.org/2000/svg" xmlns:xlink="http://www.w3.org/1999/xlink"><symbol id="svg-body" viewBox="0 0 18 15"><path d="M15.879 2.278s1.348-1.163 1.624-2.012a7.464 7.464 0 0 1-2.345.882A3.715 3.715 0 0 0 12.462 0C10.422 0 8.77 1.628 8.77 3.636c0 .285.033.563.096.83-3.07-.153-5.79-1.6-7.612-3.8a3.577 3.577 0 0 0-.5 1.828A3.62 3.62 0 0 0 2.396 5.52a3.72 3.72 0 0 1-1.673-.455v.045c0 1.762 1.273 3.232 2.962 3.566a3.755 3.755 0 0 1-1.667.062 3.69 3.69 0 0 0 3.45 2.526A7.483 7.483 0 0 1 .88 12.822c-.298 0-.592-.018-.881-.051a10.571 10.571 0 0 0 5.66 1.633c6.794 0 10.508-5.54 10.508-10.346 0-.158-.004-.314-.01-.47A7.444 7.444 0 0 0 18 1.705c-.662.29-2.121.573-2.121.573z" fill-rule="evenodd"/></symbol><use xlink:href="#svg-body"></use></svg>