<svg xmlns="http://www.w3.org/2000/svg" xmlns:xlink="http://www.w3.org/1999/xlink"><symbol id="svg-body" viewBox="0 0 24 24"><path fill-rule="evenodd" d="M17.344 9.031h2.375V5.468h-2.375v3.563zm0 4.75h2.375v-3.563h-2.375v3.563zm0 4.75h2.375v-3.563h-2.375v3.563zm-2.675-6.015l-4.156 2.376a.603.603 0 0 1-.592-.002.597.597 0 0 1-.296-.515v-4.75a.6.6 0 0 1 .296-.515.596.596 0 0 1 .592-.001l4.156 2.374a.594.594 0 0 1 0 1.033zM4.281 9.031h2.375V5.468H4.281v3.563zm0 4.75h2.375v-3.563H4.281v3.563zm0 4.75h2.375v-3.563H4.281v3.563zM19.125 3.688H4.875A2.374 2.374 0 0 0 2.5 6.063v11.875a2.374 2.374 0 0 0 2.375 2.374h14.25a2.374 2.374 0 0 0 2.375-2.374V6.063a2.374 2.374 0 0 0-2.375-2.375z"/></symbol><use xlink:href="#svg-body"></use></svg>