<svg xmlns="http://www.w3.org/2000/svg" xmlns:xlink="http://www.w3.org/1999/xlink"><symbol id="svg-body" viewBox="0 0 27 16"><path d="M0 1c0-.552.44-1 .997-1H25.67c.55 0 .997.445.997 1v14c0 .552-.44 1-.997 1H.997A.997.997 0 0 1 0 15V1zm11.564 5.813c-.41.06-.894.084-1.598.084H3.742c-.683 0-1.157-.024-1.609-.084v1.584c.473-.048 1.02-.084 1.609-.084h6.224c.63 0 1.114.024 1.598.084V6.813zm6.587 2.328v.816h-3.384c-.504 0-.9-.024-1.284-.072v1.236c.396-.048.768-.072 1.296-.072h3.372v.864c0 .228-.072.264-.6.264-.336 0-.996-.048-1.392-.096.168.36.264.756.324 1.26.672.024 1.128.036 1.368.036 1.248 0 1.596-.24 1.596-1.116V11.05h3.108c.468 0 .888.024 1.296.072V9.885c-.36.048-.756.072-1.296.072h-3.108v-.816h2.016c.504 0 .708.012 1.02.048V8.013a6.13 6.13 0 0 1-.9.048h-2.136V7.09c.336-.06.516-.084.816-.144.288-.048.324-.06.564-.096l-.912-1.044c-.276.132-.444.18-.948.264-.756.132-1.332.192-2.148.228.348-.42.456-.588.684-.996h2.352c.384.612.78 1.092 1.404 1.68.732.684 1.476 1.188 2.508 1.704.216-.516.384-.792.696-1.152-.744-.276-1.236-.528-1.776-.9-.588-.42-1.032-.828-1.428-1.332h1.476c.504 0 .924.024 1.296.072V4.125c-.372.036-.756.06-1.296.06h-.876c.192-.228.492-.696 1.008-1.56l-1.32-.336a8.895 8.895 0 0 1-1.056 1.896h-4.848l1.092-.36c-.336-.648-.588-1.032-.984-1.512l-1.164.408c.456.576.648.876.924 1.464h-.888c-.504 0-.936-.024-1.296-.06v1.248c.396-.048.792-.072 1.296-.072h1.488c-.672.984-1.68 1.704-3.192 2.28.348.36.528.612.756 1.092a8.855 8.855 0 0 0 1.14-.624v1.14c.276-.036.516-.048 1.068-.048h2.268zm0-1.08h-2.436c-.336 0-.6-.012-.852-.048.708-.468 1.02-.72 1.488-1.2.084.204.108.288.168.564a28.766 28.766 0 0 0 1.632-.132v.816zm-.684-5.544c.408.624.576.96.852 1.656l1.212-.432a8.02 8.02 0 0 0-.876-1.608l-1.188.384z" fill-rule="evenodd"/></symbol><use xlink:href="#svg-body"></use></svg>